<svg width="18" height="20" viewBox="0 0 18 20" fill="none" xmlns="http://www.w3.org/2000/svg">
<path d="M16 0C16.5304 0 17.0391 0.210714 17.4142 0.585786C17.7893 0.960859 18 1.46957 18 2V14C18 14.5304 17.7893 15.0391 17.4142 15.4142C17.0391 15.7893 16.5304 16 16 16H14V18C14 18.5304 13.7893 19.0391 13.4142 19.4142C13.0391 19.7893 12.5304 20 12 20H2C1.46957 20 0.960859 19.7893 0.585786 19.4142C0.210714 19.0391 0 18.5304 0 18V6C0 5.46957 0.210714 4.96086 0.585786 4.58579C0.960859 4.21071 1.46957 4 2 4H4V2C4 1.46957 4.21071 0.960859 4.58579 0.585786C4.96086 0.210714 5.46957 0 6 0H16ZM7 13H5C4.74512 13.0003 4.49997 13.0979 4.31463 13.2728C4.1293 13.4478 4.01777 13.687 4.00283 13.9414C3.98789 14.1958 4.07067 14.4464 4.23426 14.6418C4.39786 14.8373 4.6299 14.9629 4.883 14.993L5 15H7C7.25488 14.9997 7.50003 14.9021 7.68537 14.7272C7.8707 14.5522 7.98224 14.313 7.99717 14.0586C8.01211 13.8042 7.92933 13.5536 7.76574 13.3582C7.60215 13.1627 7.3701 13.0371 7.117 13.007L7 13ZM16 2H6V4H12C12.5304 4 13.0391 4.21071 13.4142 4.58579C13.7893 4.96086 14 5.46957 14 6V14H16V2ZM9 9H5C4.73478 9 4.48043 9.10536 4.29289 9.29289C4.10536 9.48043 4 9.73478 4 10C4 10.2652 4.10536 10.5196 4.29289 10.7071C4.48043 10.8946 4.73478 11 5 11H9C9.26522 11 9.51957 10.8946 9.70711 10.7071C9.89464 10.5196 10 10.2652 10 10C10 9.73478 9.89464 9.48043 9.70711 9.29289C9.51957 9.10536 9.26522 9 9 9Z" fill="white"/>
</svg>
