<svg width="20" height="15" viewBox="0 0 20 15" fill="none" xmlns="http://www.w3.org/2000/svg">
<path d="M1.00009 15H19.0001C19.1823 14.9994 19.361 14.9491 19.5168 14.8546C19.6726 14.7601 19.7996 14.6248 19.8843 14.4634C19.9689 14.302 20.008 14.1206 19.9972 13.9387C19.9864 13.7568 19.9262 13.5812 19.8231 13.431L10.8231 0.430983C10.4501 -0.108017 9.55209 -0.108017 9.17809 0.430983L0.178085 13.431C0.0739103 13.5809 0.0128196 13.7566 0.00145064 13.9388C-0.00991832 14.121 0.0288693 14.3029 0.113599 14.4646C0.198329 14.6263 0.325761 14.7617 0.48205 14.8561C0.638338 14.9505 0.817505 15.0003 1.00009 15Z" fill="white"/>
</svg>
